<svg xmlns="http://www.w3.org/2000/svg" width="90" height="54" viewBox="0 0 90 54">
  <path id="gamepad-solid" d="M27,64a27,27,0,1,0,0,54H63a27,27,0,1,0,0-54ZM69.75,78.625a5.625,5.625,0,1,1-5.625,5.625,5.625,5.625,0,0,1,5.625-5.625ZM55.125,97.75a5.625,5.625,0,1,1,5.625,5.625A5.625,5.625,0,0,1,55.125,97.75Zm-31.5-14.625a3.375,3.375,0,0,1,6.75,0v4.5h4.5a3.375,3.375,0,0,1,0,6.75h-4.5v4.5a3.375,3.375,0,0,1-6.75,0v-4.5h-4.5a3.375,3.375,0,0,1,0-6.75h4.5Z" transform="translate(0 -64)" fill="#5eb1bf"/>
</svg>
