<svg xmlns="http://www.w3.org/2000/svg" width="90" height="90" viewBox="0 0 90 90">
  <path id="envelope-open-text-solid" d="M37.863,16.875H16.875V48.059L.035,35.6a11.244,11.244,0,0,1,4.518-8.051l3.885-2.883V16.875a8.44,8.44,0,0,1,8.438-8.437H30.34l8.771-6.486A9.866,9.866,0,0,1,45,0a9.967,9.967,0,0,1,5.889,1.934l8.771,6.5H73.125a8.44,8.44,0,0,1,8.438,8.438v7.787l3.885,2.883A11.244,11.244,0,0,1,89.965,35.6L73.125,48.059V16.875H37.863ZM0,78.75V42.557L38.25,70.893A11.387,11.387,0,0,0,45,73.125a11.27,11.27,0,0,0,6.75-2.232L90,42.557V78.75h0A11.26,11.26,0,0,1,78.75,90H11.25A11.26,11.26,0,0,1,0,78.75ZM30.938,28.125H59.063a2.813,2.813,0,0,1,0,5.625H30.938a2.813,2.813,0,0,1,0-5.625Zm0,11.25H59.063a2.813,2.813,0,0,1,0,5.625H30.938a2.813,2.813,0,0,1,0-5.625Z" fill="#5eb1bf"/>
</svg>
