<svg xmlns="http://www.w3.org/2000/svg" width="67.5" height="90" viewBox="0 0 67.5 90">
  <path id="clipboard-regular" d="M49.219,11.25H56.25A11.26,11.26,0,0,1,67.5,22.5V78.75A11.26,11.26,0,0,1,56.25,90h-45A11.26,11.26,0,0,1,0,78.75V22.5A11.26,11.26,0,0,1,11.25,11.25h8.719a14.066,14.066,0,0,1,27.563,0ZM11.25,19.688A2.821,2.821,0,0,0,8.438,22.5V78.75a2.821,2.821,0,0,0,2.813,2.813h45a2.821,2.821,0,0,0,2.813-2.812V22.5a2.821,2.821,0,0,0-2.812-2.812H53.438v4.219a4.209,4.209,0,0,1-4.219,4.219H18.281a4.209,4.209,0,0,1-4.219-4.219V19.688Zm22.5-1.406a4.219,4.219,0,1,0-4.219-4.219A4.219,4.219,0,0,0,33.75,18.281Z" fill="#5eb1bf"/>
</svg>
