<svg xmlns="http://www.w3.org/2000/svg" width="90" height="90" viewBox="0 0 90 90">
  <path id="book-open-reader-solid" d="M28.125,16.875A16.875,16.875,0,1,1,45,33.75,16.875,16.875,0,0,1,28.125,16.875ZM42.188,43.594V90L33.68,85.746a33.812,33.812,0,0,0-11.742-3.393L5.063,80.666A5.641,5.641,0,0,1,0,75.059V39.375A5.619,5.619,0,0,1,5.625,33.75h5.326A54.541,54.541,0,0,1,42.188,43.594ZM47.813,90V43.594A54.541,54.541,0,0,1,79.049,33.75h5.326A5.619,5.619,0,0,1,90,39.375V75.059a5.624,5.624,0,0,1-5.062,5.59L68.063,82.336A33.921,33.921,0,0,0,56.32,85.729Z" fill="#5eb1bf"/>
</svg>
