<svg xmlns="http://www.w3.org/2000/svg" width="67.5" height="90" viewBox="0 0 67.5 90">
  <path id="file-audio-regular" d="M11.25,81.563h45a2.821,2.821,0,0,0,2.813-2.812V28.125H45A5.619,5.619,0,0,1,39.375,22.5V8.438H11.25A2.821,2.821,0,0,0,8.438,11.25v67.5A2.821,2.821,0,0,0,11.25,81.563ZM0,11.25A11.26,11.26,0,0,1,11.25,0H40.342A11.254,11.254,0,0,1,48.3,3.287L64.213,19.2A11.254,11.254,0,0,1,67.5,27.158V78.75A11.26,11.26,0,0,1,56.25,90h-45A11.26,11.26,0,0,1,0,78.75ZM33.75,47.813v22.5a2.814,2.814,0,0,1-1.74,2.6,2.783,2.783,0,0,1-3.059-.615l-6.205-6.205H19.688a2.821,2.821,0,0,1-2.812-2.812V54.844a2.821,2.821,0,0,1,2.813-2.812h3.059l6.205-6.205a2.809,2.809,0,0,1,4.8,1.986Zm15.082-.7a23.93,23.93,0,0,1,0,23.906A4.221,4.221,0,1,1,41.52,66.8a15.457,15.457,0,0,0,0-15.469,4.221,4.221,0,0,1,7.313-4.219Z" fill="#5eb1bf"/>
</svg>
