<svg xmlns="http://www.w3.org/2000/svg" width="67.518" height="90" viewBox="0 0 67.518 90">
  <path id="award-solid" d="M30.506.987a5.8,5.8,0,0,1,6.4,0l3.129,2.057a5.865,5.865,0,0,0,3.533.949l3.744-.229a5.8,5.8,0,0,1,5.537,3.2l1.687,3.357A5.831,5.831,0,0,0,57.118,12.9l3.392,1.7a5.8,5.8,0,0,1,3.2,5.537l-.228,3.744a5.832,5.832,0,0,0,.949,3.533L66.5,30.552a5.8,5.8,0,0,1,0,6.4L64.43,40.1a5.865,5.865,0,0,0-.949,3.533l.229,3.744a5.8,5.8,0,0,1-3.2,5.537L57.153,54.6a5.831,5.831,0,0,0-2.584,2.584l-1.7,3.392a5.8,5.8,0,0,1-5.537,3.2l-3.744-.228a5.832,5.832,0,0,0-3.533.949l-3.129,2.074a5.8,5.8,0,0,1-6.4,0l-3.146-2.074a5.865,5.865,0,0,0-3.533-.949l-3.744.229a5.8,5.8,0,0,1-5.537-3.2l-1.687-3.357a5.831,5.831,0,0,0-2.584-2.584L6.9,52.927a5.8,5.8,0,0,1-3.2-5.537l.229-3.744a5.832,5.832,0,0,0-.949-3.533L.924,36.967a5.8,5.8,0,0,1,0-6.4l2.057-3.129a5.865,5.865,0,0,0,.949-3.533L3.7,20.164a5.8,5.8,0,0,1,3.2-5.537l3.357-1.687a5.947,5.947,0,0,0,2.6-2.619l1.687-3.357a5.8,5.8,0,0,1,5.537-3.2l3.744.229a5.832,5.832,0,0,0,3.533-.949ZM47.767,33.768A14.062,14.062,0,1,0,33.705,47.83,14.062,14.062,0,0,0,47.767,33.768ZM.186,77.676,7.762,59.659a.137.137,0,0,1,.07.07l1.687,3.357a11.463,11.463,0,0,0,10.9,6.293l3.744-.229a.167.167,0,0,1,.123.035l3.129,2.074a11.945,11.945,0,0,0,2.83,1.353l-6.609,15.7a2.807,2.807,0,0,1-4.939.439l-5.66-8.665L3.174,81.543A2.87,2.87,0,0,1,.537,80.488a2.8,2.8,0,0,1-.369-2.812ZM43.777,88.292,37.168,72.613A11.3,11.3,0,0,0,40,71.26l3.129-2.074a.254.254,0,0,1,.123-.035l3.744.229a11.463,11.463,0,0,0,10.9-6.293l1.687-3.357a.137.137,0,0,1,.07-.07l7.593,18.016a2.846,2.846,0,0,1-.369,2.812,2.777,2.777,0,0,1-2.637,1.055l-9.861-1.459-5.66,8.648a2.807,2.807,0,0,1-4.939-.439Z" transform="translate(0.052 -0.025)" fill="#5eb1bf"/>
</svg>
