<svg xmlns="http://www.w3.org/2000/svg" width="40" height="40" viewBox="0 0 40 40">
  <path id="envelope-open-regular" d="M19.953,3.766a.078.078,0,0,1,.094,0L35.984,15.156a.626.626,0,0,1,.266.508v1.063L22.773,27.789a4.37,4.37,0,0,1-5.555,0L3.75,16.727V15.664a.606.606,0,0,1,.266-.508ZM3.75,21.578l11.094,9.109a8.125,8.125,0,0,0,10.313,0L36.25,21.578V35.625a.627.627,0,0,1-.625.625H4.375a.627.627,0,0,1-.625-.625ZM20,0a3.851,3.851,0,0,0-2.227.711L1.836,12.1A4.363,4.363,0,0,0,0,15.664V35.625A4.378,4.378,0,0,0,4.375,40h31.25A4.378,4.378,0,0,0,40,35.625V15.664A4.376,4.376,0,0,0,38.172,12.1L22.227.711A3.851,3.851,0,0,0,20,0Z" fill="#5eb1bf"/>
</svg>
