<svg xmlns="http://www.w3.org/2000/svg" xmlns:xlink="http://www.w3.org/1999/xlink" width="222.685" height="146.069" viewBox="0 0 222.685 146.069">
  <defs>
    <linearGradient id="linear-gradient" x1="0.5" x2="0.5" y2="1" gradientUnits="objectBoundingBox">
      <stop offset="0" stop-color="#2e6a74"/>
      <stop offset="0.635" stop-color="#2e6a74" stop-opacity="0.961"/>
      <stop offset="1" stop-color="#2e6a74" stop-opacity="0"/>
    </linearGradient>
  </defs>
  <g id="Group_16" data-name="Group 16" transform="translate(-180.271 -759.931)">
    <path id="comment-regular" d="M25.044,105.1a9.781,9.781,0,0,1,9.074-1.3,52.482,52.482,0,0,0,17.864,3.072c25.371,0,42.319-16.378,42.319-32.553S77.353,41.766,51.982,41.766,9.663,58.144,9.663,74.319a27.288,27.288,0,0,0,7.263,18.148,9.737,9.737,0,0,1,2.4,7.223,36.033,36.033,0,0,1-2.3,10.051,51.085,51.085,0,0,0,8.016-4.618ZM4.21,113.363q.549-.824,1.038-1.648A29.617,29.617,0,0,0,9.6,98.917a37.081,37.081,0,0,1-9.7-24.6C-.1,50.942,23.213,32,51.982,32s52.085,18.942,52.085,42.319-23.316,42.319-52.085,42.319A62.3,62.3,0,0,1,30.8,113a60.262,60.262,0,0,1-11.048,6.226A49.837,49.837,0,0,1,9.561,122.5c-.163.041-.326.061-.488.1-.9.163-1.77.305-2.686.387-.041,0-.1.02-.142.02-1.038.1-2.075.163-3.113.163a3.263,3.263,0,0,1-2.319-5.554,24.9,24.9,0,0,0,2.3-2.747q.519-.7.977-1.4c.02-.041.041-.061.061-.1Z" transform="translate(180.4 782.831)" fill="url(#linear-gradient)"/>
    <path id="comment-regular-2" data-name="comment-regular" d="M95.041,120.04a11.779,11.779,0,0,0-10.928-1.568,63.206,63.206,0,0,1-21.514,3.7c-30.555,0-50.967-19.725-50.967-39.205S32.043,43.762,62.6,43.762s50.967,19.725,50.967,39.205c0,7.841-3.038,15.388-8.748,21.857a11.727,11.727,0,0,0-2.891,8.7,43.4,43.4,0,0,0,2.769,12.1,61.524,61.524,0,0,1-9.654-5.562Zm25.091,9.948q-.662-.992-1.25-1.985a35.669,35.669,0,0,1-5.244-15.412c7.351-8.356,11.688-18.573,11.688-29.624C125.327,54.812,97.246,32,62.6,32S-.13,54.812-.13,82.967,27.951,133.933,62.6,133.933a75.024,75.024,0,0,0,25.508-4.386,72.576,72.576,0,0,0,13.305,7.5,60.021,60.021,0,0,0,12.276,3.945c.2.049.392.074.588.123,1.078.2,2.132.368,3.234.466.049,0,.123.025.172.025,1.25.123,2.5.2,3.749.2a3.93,3.93,0,0,0,2.793-6.689,29.989,29.989,0,0,1-2.769-3.308q-.625-.845-1.176-1.691c-.025-.049-.049-.074-.074-.122Z" transform="translate(277.597 727.931)" fill="url(#linear-gradient)"/>
  </g>
</svg>
